<?xml version="1.0" encoding="UTF-8"?>
<svg width="48px" height="48px" viewBox="0 0 48 48" version="1.1" xmlns="http://www.w3.org/2000/svg" xmlns:xlink="http://www.w3.org/1999/xlink">
    <title>Cover Icon@1x</title>
    <g id="Cover-Icon" stroke="none" stroke-width="1" fill="none" fill-rule="evenodd">
        <rect fill="#FFFFFF" x="0" y="0" width="48" height="48"></rect>
        <path d="M42,24.5000213 C42,14.2828615 33.7170019,6 23.4999694,6 C13.2828517,6 5,14.2828615 5,24.5000213 C5,34.7176713 13.2828517,43 23.4999694,43 C33.7170019,43 42,34.7176713 42,24.5000213 Z M20.1327488,14.2222222 C19.9873,14.5076639 19.9873,14.8813471 19.9873,15.628692 L19.9873,19.8643855 C19.9873,20.0510778 19.9873,20.1444133 20.0108811,20.2307151 C20.0317569,20.3071697 20.0660954,20.3792974 20.1122778,20.4437094 C20.164382,20.5164126 20.2368295,20.5752615 20.3817244,20.6929807 L21.4531632,21.563352 C21.6278167,21.7052203 21.7151329,21.7761544 21.74683,21.861561 C21.7746289,21.9364596 21.7746289,22.0188609 21.74683,22.0937595 C21.7151329,22.1791448 21.6278167,22.2500789 21.4531632,22.3919472 L20.3817457,23.2623399 C20.2368508,23.3800377 20.164382,23.4388866 20.1122778,23.5115898 C20.0660954,23.5760018 20.0317569,23.6481295 20.0108811,23.7246054 C19.9873,23.8109072 19.9873,23.9042427 19.9873,24.0909351 L19.9873,33.3712441 C19.9873,34.118525 19.9873,34.4921655 20.1327488,34.7775646 C20.2606875,35.0288608 20.4648228,35.2328391 20.7159073,35.3607251 C21.0013729,35.5063021 21.3750494,35.5063021 22.122381,35.5063021 L24.8775366,35.5063021 C25.6248682,35.5063021 25.9985446,35.5063021 26.2839463,35.3607251 C26.5350948,35.2328391 26.7391661,35.0288608 26.8671901,34.7775646 C27.0126815,34.4921655 27.0126815,34.118525 27.0126815,33.3712441 L27.0126815,29.135444 C27.0126815,28.9487304 27.0126815,28.8553735 26.9890364,28.7692636 C26.9681607,28.6927451 26.9338647,28.6204894 26.8876398,28.5561201 C26.8354504,28.4834382 26.7630242,28.4246106 26.6181718,28.3069554 L25.5467544,27.4364775 C25.3721221,27.2946731 25.2847847,27.2237177 25.2530876,27.1383111 C25.2252887,27.0634125 25.2252887,26.9810325 25.2530876,26.9061339 C25.2847847,26.8207273 25.3721008,26.7497932 25.5467544,26.6079249 L26.6181718,25.7375536 C26.7630242,25.6198558 26.8354504,25.5609855 26.8876398,25.4882823 C26.9338647,25.4238703 26.9681607,25.3517426 26.9890364,25.275288 C27.0126815,25.1889862 27.0126815,25.0956507 27.0126815,24.9089584 L27.0126815,15.628692 C27.0126815,14.8813471 27.0126815,14.5076639 26.8671901,14.2222222 C26.7391661,13.9711392 26.5350948,13.7669904 26.2839463,13.6390617 C25.9985446,13.4936126 25.6248682,13.4936126 24.8775366,13.4936126 L22.122381,13.4936126 C21.3750494,13.4936126 21.0013729,13.4936126 20.7159073,13.6390617 C20.4648228,13.7669904 20.2606875,13.9711392 20.1327488,14.2222222 Z" id="Shape" fill="#1A285F"></path>
    </g>
</svg>