<?xml version="1.0" encoding="UTF-8"?>
<svg width="952px" height="398px" viewBox="0 0 952 398" version="1.1" xmlns="http://www.w3.org/2000/svg" xmlns:xlink="http://www.w3.org/1999/xlink">
    <title>Cover Image@1x</title>
    <defs>
        <linearGradient x1="49.999122%" y1="99.999561%" x2="49.999122%" y2="0.000877963126%" id="linearGradient-1">
            <stop stop-color="#7400E1" offset="0%"></stop>
            <stop stop-color="#4000BF" offset="100%"></stop>
        </linearGradient>
    </defs>
    <g id="Cover-Image" stroke="none" stroke-width="1" fill="none" fill-rule="evenodd">
        <rect fill="#FFFFFF" x="0" y="0" width="952" height="398"></rect>
        <g id="1Password_CLASSIC_primary-logo_light-backgrounds_intrepid-blue" transform="translate(98, 60)" fill="#1A285F">
            <path d="M124,62.0000714 C124,27.7587792 96.2407633,0 61.9998976,0 C27.7587463,0 0,27.7587792 0,62.0000714 C0,96.2430066 27.7587463,124 61.9998976,124 C96.2407633,124 124,96.2430066 124,62.0000714 Z M50.7151582,27.5555556 C50.2277081,28.5121711 50.2277081,29.7645145 50.2277081,32.2691299 L50.2277081,46.4644269 C50.2277081,47.0900986 50.2277081,47.4028988 50.3067367,47.6921264 C50.3766988,47.9483525 50.4917793,48.1900779 50.6465525,48.405945 C50.8211721,48.6495991 51.0639691,48.8468224 51.5495629,49.2413406 L55.1403306,52.1582607 C55.7256561,52.6337112 56.0182832,52.8714365 56.1245113,53.1576639 C56.2176751,53.4086755 56.2176751,53.6848311 56.1245113,53.9358427 C56.0182832,54.2219987 55.7256561,54.459724 55.1403306,54.9351744 L51.5496343,57.852166 C51.0640404,58.2466127 50.8211721,58.4438361 50.6465525,58.6874902 C50.4917793,58.9033573 50.3766988,59.1450827 50.3067367,59.4013802 C50.2277081,59.6906079 50.2277081,60.003408 50.2277081,60.6290797 L50.2277081,91.7306558 C50.2277081,94.2350569 50.2277081,95.4872575 50.7151582,96.4437301 C51.1439257,97.2859118 51.8280548,97.9695147 52.6695272,98.3981059 C53.6262229,98.8859855 54.8785439,98.8859855 57.3831147,98.8859855 L66.616609,98.8859855 C69.1211798,98.8859855 70.3735009,98.8859855 71.3299823,98.3981059 C72.1716689,97.9695147 72.8555838,97.2859118 73.284637,96.4437301 C73.7722298,95.4872575 73.7722298,94.2350569 73.7722298,91.7306558 L73.7722298,77.5350016 C73.7722298,76.9092585 73.7722298,76.5963869 73.692987,76.3078022 C73.6230249,76.0513618 73.5080872,75.8092078 73.3531712,75.5934836 C73.178266,75.3499009 72.9355405,75.152749 72.4500894,74.7584451 L68.8593931,71.8411678 C68.274139,71.3659316 67.9814405,71.1281349 67.8752124,70.8419075 C67.7820486,70.5908959 67.7820486,70.3148117 67.8752124,70.0638002 C67.9814405,69.7775727 68.2740676,69.5398475 68.8593931,69.064397 L72.4500894,66.1474768 C72.9355405,65.7530301 73.178266,65.5557353 73.3531712,65.3120812 C73.5080872,65.0962141 73.6230249,64.8544887 73.692987,64.5982626 C73.7722298,64.309035 73.7722298,63.9962348 73.7722298,63.3705632 L73.7722298,32.2691299 C73.7722298,29.7645145 73.7722298,28.5121711 73.284637,27.5555556 C72.8555838,26.7140882 72.1716689,26.0299138 71.3299823,25.6011798 C70.3735009,25.1137287 69.1211798,25.1137287 66.616609,25.1137287 L57.3831147,25.1137287 C54.8785439,25.1137287 53.6262229,25.1137287 52.6695272,25.6011798 C51.8280548,26.0299138 51.1439257,26.7140882 50.7151582,27.5555556 Z" id="Shape"></path>
            <path d="M173.897786,99 C174.506904,99 175,98.5024726 175,97.8885938 L175,25.1114062 C175,24.4975987 174.506904,24 173.897786,24 L163.261915,24 C162.867863,24 162.507061,24.2150717 162.29058,24.5471373 C159.851985,28.2864444 155.317202,30.1698388 149.102922,30.3659232 C148.494511,30.3850533 148,30.880582 148,31.4944608 L148,42.3795313 C148,42.9933387 148.493096,43.4909374 149.102214,43.4909374 L157.697786,43.4909374 C158.306197,43.4909374 158.8,43.9885362 158.8,44.602415 L158.8,97.8885938 C158.8,98.5024726 159.293096,99 159.902214,99 L173.897786,99 Z" id="Path" fill-rule="nonzero"></path>
            <path d="M216.969672,39.1169665 C222.78627,39.1169665 227.4625,42.1908382 227.4625,49.9323407 C227.4625,57.4462652 222.78627,60.7477862 216.969672,60.7477862 L204.309426,60.7477862 L204.309426,39.1169665 L216.969672,39.1169665 Z M216.969672,74.7506785 C234.077357,74.7506785 244,64.3908881 244,49.4769708 C244,35.3600043 234.077357,25 216.969672,25 L189.117418,25 C188.499898,25 188,25.497007 188,26.1100845 L188,97.8899155 C188,98.5030643 188.499898,99 189.117418,99 L203.192008,99 C203.808811,99 204.309426,98.5030643 204.309426,97.8899155 L204.309426,75.860763 C204.309426,75.2476142 204.810041,74.7506785 205.426844,74.7506785 L216.969672,74.7506785 Z" id="Shape" fill-rule="nonzero"></path>
            <path d="M269.079486,88.1771902 C264.351023,88.1771902 261.424318,86.0172332 261.424318,82.1522345 C261.424318,78.7414389 263.450498,76.4682871 268.291527,76.4682871 L281.463825,76.4682871 L281.463825,77.604507 C281.463825,84.1982846 275.834837,88.1771902 269.079486,88.1771902 Z M282.702046,97.5267995 C282.702046,98.1390483 283.196202,98.6352546 283.805047,98.6352546 L295.896999,98.6352546 C296.506552,98.6352546 297,98.1390483 297,97.5267995 L297,65.441116 C297,49.9806938 288.331034,41 272.682293,41 C261.063258,41 252.167745,47.2395276 248.520336,57.2705129 C248.301577,57.8729372 248.66476,58.5225617 249.284933,58.6753392 L261.467503,61.6780638 C262.018296,61.8137552 262.577584,61.5066341 262.792096,60.9793882 C264.641995,56.4287419 267.722327,53.7321417 272.682293,53.7321417 C277.861018,53.7321417 281.463825,57.1425101 281.463825,63.281159 L281.463825,64.0769402 C281.463825,65.7821244 280.900997,66.4642123 278.874108,66.4642123 L264.801285,66.4642123 C253.093048,66.4642123 246,72.7164832 246,82.6064377 C246,93.1791208 254.106138,100 265.364113,100 C271.029207,100 276.472001,98.1276576 280.307726,93.9586702 C281.061704,93.1392534 282.702046,93.6390193 282.702046,94.7553056 L282.702046,97.5267995 Z" id="Shape" fill-rule="nonzero"></path>
            <path d="M327.348944,88.6313934 C321.797218,88.6313934 317.741376,86.3482747 315.741835,82.1522345 C315.499706,81.6432136 314.936414,81.347056 314.384618,81.485168 L302.827803,84.384095 C302.233617,84.5328858 301.867909,85.1294724 302.044656,85.7111088 C304.970322,95.3390777 314.756793,100 326.777749,100 C342.202882,100 351,92.1560957 351,81.4702177 C351,60.7802649 317.979912,67.8283881 317.979912,57.5972117 C317.979912,54.1868433 320.836605,52.0268863 325.978076,52.0268863 C331.095119,52.0268863 334.521569,54.7979531 336.164024,59.0472448 C336.367355,59.5743483 336.913403,59.9050339 337.473102,59.8000261 L349.268454,57.5876008 C349.898564,57.4692802 350.302352,56.8493426 350.120576,56.2397991 C347.414765,47.1881272 339.811049,41 326.092315,41 C311.010617,41 303.012454,48.9575975 303.012454,58.9613875 C303.012454,80.3332859 336.14678,73.9673218 336.14678,82.8342512 C336.14678,86.3582416 333.176567,88.6313934 327.348944,88.6313934 Z" id="Path" fill-rule="nonzero"></path>
            <path d="M378.348944,88.6313934 C372.796499,88.6313934 368.741376,86.3482747 366.741835,82.1522345 C366.498987,81.6432136 365.935696,81.347056 365.384618,81.485168 L353.827803,84.384095 C353.233617,84.5328858 352.867909,85.1294724 353.044656,85.7111088 C355.970322,95.3390777 365.756075,100 377.777749,100 C393.202163,100 402,92.1560957 402,81.4702177 C402,60.7802649 368.979912,67.8283881 368.979912,57.5972117 C368.979912,54.1868433 371.836605,52.0268863 376.978076,52.0268863 C382.095119,52.0268863 385.520851,54.7979531 387.163305,59.0472448 C387.367355,59.5743483 387.912684,59.9050339 388.473102,59.8000261 L400.267735,57.5876008 C400.898564,57.4692802 401.302352,56.8493426 401.119857,56.2397991 C398.414765,47.1881272 390.81033,41 377.092315,41 C362.010617,41 354.012454,48.9575975 354.012454,58.9613875 C354.012454,80.3332859 387.14678,73.9673218 387.14678,82.8342512 C387.14678,86.3582416 384.175849,88.6313934 378.348944,88.6313934 Z" id="Path" fill-rule="nonzero"></path>
            <path d="M416.26458,98.1576081 C416.386279,98.6521325 416.833706,99 417.348425,99 L435.055044,99 C435.572627,99 436.022201,98.6478816 436.141037,98.1498148 L445.159716,60.1959879 L454.17911,98.1498148 C454.297231,98.6478816 454.746804,99 455.265103,99 L473.542996,99 C474.056283,99 474.50371,98.6535495 474.626125,98.1597336 L487.967298,44.3659643 C488.139826,43.670867 487.607925,43 486.884169,43 L474.301115,43 C473.772078,43 473.316062,43.3674217 473.208679,43.8797292 L464.285213,86.5554139 L453.229851,43.8296391 C453.10314,43.3414202 452.658577,43 452.149585,43 L438.072486,43 C437.555619,43 437.106762,43.3508431 436.987209,43.8478472 L426.717169,86.5554139 L417.906096,43.8824214 C417.800146,43.3688387 417.343413,43 416.813661,43 L404.116066,43 C403.393025,43 402.861125,43.6693792 403.032221,44.3639096 L416.26458,98.1576081 Z" id="Path" fill-rule="nonzero"></path>
            <path d="M517.5,100 C534.396838,100 546,86.8131567 546,70.5566686 C546,54.1868433 534.396838,41 517.5,41 C500.715085,41 489,54.1868433 489,70.5566686 C489,86.8131567 500.715085,100 517.5,100 Z M517.5,86.4721483 C510.515435,86.4721483 505.108418,80.5603875 505.108418,70.5566686 C505.108418,60.5528786 510.515435,54.5278517 517.5,54.5278517 C524.483857,54.5278517 530.003505,60.5528786 530.003505,70.5566686 C530.003505,80.5603875 524.483857,86.4721483 517.5,86.4721483 Z" id="Shape" fill-rule="nonzero"></path>
            <path d="M569.090996,69.0277428 C569.090996,59.3038101 574.033287,57.0158428 581.618742,57.0158428 C583.072953,57.0158428 584.670994,57.1589124 586.185194,57.4450516 C586.827012,57.5662703 587.463049,57.1602736 587.576523,56.5229441 L589.98262,43.0509031 C590.067184,42.5777059 589.838789,42.0979177 589.392841,41.9095702 C588.010184,41.3261156 586.300114,41 584.26263,41 C576.561531,41 570.584958,45.4615936 567.711953,54.4990501 L567.711953,43.4882791 C567.711953,42.8722273 567.207461,42.372809 566.58588,42.372809 L554.125351,42.372809 C553.50377,42.372809 553,42.8722273 553,43.4882791 L553,97.88453 C553,98.5006534 553.50377,99 554.125351,99 L567.964922,99 C568.586503,99 569.090996,98.5006534 569.090996,97.88453 L569.090996,69.0277428 Z" id="Path" fill-rule="nonzero"></path>
            <path d="M618.613529,86.8291067 C610.438031,86.8291067 606.123224,80.1295355 606.123224,70.5922813 C606.123224,61.0547428 610.438031,54.2422559 618.613529,54.2422559 C626.789027,54.2422559 631.103833,61.0547428 631.103833,70.5922813 C631.103833,80.1295355 626.789027,86.8291067 618.613529,86.8291067 Z M632.012063,97.5297909 C632.012063,98.1412992 632.509733,98.6369053 633.124502,98.6369053 L645.887561,98.6369053 C646.501616,98.6369053 647,98.1412992 647,97.5297909 L647,26.1071144 C647,25.4956773 646.501616,25 645.887561,25 L632.670387,25 C632.055618,25 631.557948,25.4956773 631.557948,26.1071144 L631.557948,50.2682341 C628.037843,43.6828585 622.133634,41.0713625 614.639309,41.0713625 C599.991958,41.0713625 590,53.7881043 590,70.5922813 C590,87.3965295 599.991958,100 614.639309,100 C622.587749,100 628.719015,96.8201568 632.012063,88.6451441 L632.012063,97.5297909 Z" id="Shape" fill-rule="nonzero"></path>
        </g>
        <text id="Insomnia-Plugin" fill-rule="nonzero" font-family="Rubik-Medium, Rubik" font-size="47" font-weight="400" letter-spacing="1.06818192" fill="#000000">
            <tspan x="529.278545" y="248">Insomnia </tspan>
            <tspan x="595.287908" y="304.239109">Plugin</tspan>
        </text>
        <g id="insomnia-logo-bug" transform="translate(759, 213)">
            <path d="M47.0588235,91.7264706 C71.7264706,91.7264706 91.7235294,71.7264706 91.7235294,47.0588235 C91.7235294,22.3911765 71.7264706,2.39411765 47.0588235,2.39411765 C22.3911765,2.39411765 2.39117647,22.3911765 2.39117647,47.0588235 C2.39117647,71.7264706 22.3911765,91.7264706 47.0588235,91.7264706 Z" id="Path" fill="#FFFFFF" fill-rule="nonzero"></path>
            <path d="M47.0588235,0 C21.0676471,0 0,21.0676471 0,47.0588235 C0,73.05 21.0676471,94.1176471 47.0588235,94.1176471 C73.05,94.1176471 94.1176471,73.05 94.1176471,47.0588235 C94.1176471,21.0676471 73.05,0 47.0588235,0 Z M47.0588235,4.78529412 C70.4058824,4.78529412 89.3323529,23.7117647 89.3323529,47.0588235 C89.3323529,70.4058824 70.4058824,89.3323529 47.0588235,89.3323529 C23.7117647,89.3323529 4.78529412,70.4058824 4.78529412,47.0588235 C4.78529412,23.7117647 23.7117647,4.78529412 47.0588235,4.78529412 Z" id="Shape" fill="#4000BF" fill-rule="nonzero"></path>
            <path d="M47.5911765,13.5588235 C66.0911765,13.5588235 81.0911765,28.5588235 81.0911765,47.0588235 C81.0911765,65.5617647 66.0911765,80.5588235 47.5911765,80.5588235 C29.0882353,80.5588235 14.0911765,65.5617647 14.0911765,47.0588235 C14.0911765,42.5382353 14.9882353,38.2235294 16.6117647,34.2882353 C18.9823529,37.5176471 22.8058824,39.6147059 27.1176471,39.6147059 C34.3147059,39.6147059 40.1470588,33.7823529 40.1470588,26.5882353 C40.1470588,22.2735294 38.05,18.45 34.8205882,16.0794118 C38.7558824,14.4558824 43.0676471,13.5588235 47.5911765,13.5588235 Z" id="Path" fill="url(#linearGradient-1)"></path>
        </g>
    </g>
</svg>